<svg width="142" height="149" viewBox="0 0 142 149" fill="none" xmlns="http://www.w3.org/2000/svg">
<path d="M83.5793 138.107C87.1258 137.393 89.1124 139.485 89.6599 142.202C90.2075 144.919 89.1893 147.617 85.6361 148.338C82.0888 149.052 80.1022 146.96 79.5546 144.249C79.007 141.538 80.032 138.822 83.5793 138.107Z" fill="#016450"/>
<path d="M59.8658 11.1791C56.2999 11.7914 54.3769 9.63555 53.912 6.90561C53.4472 4.17575 54.5487 1.50961 58.1147 0.897237C61.6806 0.28495 63.6037 2.4408 64.0685 5.17074C64.5334 7.90068 63.4317 10.5732 59.8658 11.1791Z" fill="#016450"/>
<path d="M94.4246 10.4811L95.5699 11.4602L99.5527 6.80154C100.486 5.70966 101.942 5.61847 102.835 6.38185C103.703 7.12448 103.824 8.21085 103.098 9.06008L98.7339 14.1652L99.8986 15.1609L104.047 10.3081C104.869 9.34728 106.076 9.15323 107.124 10.0494C107.94 10.7464 108.269 11.7757 107.328 12.8773L103.063 17.8659L104.208 18.845L108.473 13.8564C109.97 12.1045 109.722 10.4892 108.392 9.35248C107.325 8.43975 106.124 8.26192 105.081 8.70576L105.004 8.63938C105.315 7.52822 105.063 6.50642 104.083 5.66837C103.112 4.83861 101.996 4.69046 101.005 5.22079L100.908 5.13782L101.904 3.97315L100.797 3.02723L94.4246 10.4811Z" fill="#016450"/>
<path d="M108.09 23.9155C109.268 25.1565 110.576 25.2002 111.268 25.0025L111.32 25.0581L110.32 25.9315L111.357 27.0244L116.224 22.7747C118.571 20.7255 117.205 18.7677 116.344 17.86C115.324 16.7857 113.779 15.8991 111.905 16.5192L112.505 17.8924C113.272 17.6629 114.39 17.7286 115.379 18.7705C116.332 19.7754 116.25 20.7538 115.302 21.5811L115.264 21.6147C114.716 22.0934 114.254 21.5142 112.85 20.3688C111.419 19.2044 109.75 18.0288 108.057 19.5069C106.614 20.7667 106.807 22.5633 108.09 23.9155ZM109.268 23.192C108.441 22.3214 108.248 21.3388 109.036 20.6502C109.902 19.8943 110.892 20.4186 111.816 21.1699C112.313 21.5826 113.626 22.706 114.033 22.6897L112.994 23.5967C112.07 24.403 110.498 24.4886 109.268 23.192Z" fill="#016450"/>
<path d="M114.168 31.4993C115.318 32.9988 116.693 32.8677 117.346 32.84L117.454 32.9818L116.189 33.7998L117.075 34.9549L128.056 27.8563L127.139 26.6607L123.085 29.2811L123.008 29.1797C123.235 28.639 123.864 27.5352 122.698 26.0153C121.191 24.0496 118.498 23.7595 115.903 25.4371C113.286 27.1285 112.676 29.5538 114.168 31.4993ZM115.429 30.9266C114.279 29.427 115.083 27.7557 116.841 26.6188C118.578 25.4958 120.505 25.3721 121.67 26.892C122.789 28.351 122.136 29.9252 120.291 31.1176C118.425 32.3238 116.533 32.3653 115.429 30.9266Z" fill="#016450"/>
<path d="M120.179 40.7631C121.216 42.4641 122.877 43.2889 124.461 43.0597L124.074 41.6452C122.947 41.7469 122.022 41.2035 121.407 40.195C120.487 38.6848 120.889 37.1638 122.759 36.2221L126.464 42.3007L127.044 42.0327C130.358 40.4997 130.364 38.1208 129.301 36.3763C127.919 34.1084 125.101 33.4828 122.366 34.7478C119.631 36.0128 118.703 38.3426 120.179 40.7631ZM123.942 35.6754C125.38 35.1221 127.175 35.4725 128.073 36.9445C128.923 38.3401 128.356 39.7488 126.849 40.4456L123.942 35.6754Z" fill="#016450"/>
<path d="M127.516 55.6446C128.363 58.1617 130.924 59.5232 133.921 59.0221C136.944 58.5169 138.363 56.49 137.516 53.973C136.668 51.4559 134.108 50.0944 131.085 50.5996C128.087 51.1007 126.668 53.1275 127.516 55.6446ZM128.851 55.4214C128.207 53.5094 129.626 52.3518 131.566 52.0276C133.505 51.7034 135.537 52.2841 136.181 54.1961C136.824 56.1081 135.38 57.27 133.44 57.5942C131.501 57.9184 129.495 57.3334 128.851 55.4214Z" fill="#016450"/>
<path d="M135.045 62.2528C136.755 62.1849 137.943 63.1835 138.24 64.5955C138.529 65.9637 137.791 66.8308 136.254 66.8918L130.13 67.1347L130.44 68.6091L136.666 68.3621C139.167 68.2629 140.092 66.9096 139.682 64.9667C139.377 63.5172 138.524 62.6439 137.434 62.2336L137.408 62.1086L138.939 62.0479L138.639 60.6235L128.84 61.0122L129.151 62.4866L135.045 62.2528Z" fill="#016450"/>
<path d="M130.873 81.7277C130.79 83.7179 131.706 85.3676 133.139 86.1172L133.6 84.743C132.615 84.16 132.151 83.1731 132.2 81.993C132.274 80.2261 133.446 79.2318 135.509 79.5735L135.211 86.6859L135.837 86.8111C139.418 87.5271 140.736 85.6036 140.821 83.5624C140.932 80.9088 138.953 78.7376 135.998 78.1468C133.043 77.5559 130.992 78.8954 130.873 81.7277ZM136.786 79.8288C138.278 80.2301 139.566 81.5747 139.494 83.297C139.426 84.93 138.18 85.7358 136.552 85.4104L136.786 79.8288Z" fill="#016450"/>
<path d="M129.97 89.4604C129.673 91.1454 130.394 92.3057 130.949 92.8019L130.935 92.8773L129.671 92.473L129.409 93.9568L135.563 95.9243C138.531 96.8731 139.284 94.6429 139.501 93.4106C139.758 91.9518 139.564 90.1364 137.994 88.8375L137.259 90.0904C137.883 90.6351 138.476 91.6418 138.227 93.0565C137.987 94.4209 137.169 94.8701 135.971 94.4871L135.922 94.4715C135.229 94.2499 135.418 93.54 135.509 91.7095C135.6 89.8456 135.562 87.7676 133.421 87.0833C131.597 86.5 130.294 87.6244 129.97 89.4604ZM131.219 90.0989C131.428 88.9168 132.089 88.225 133.087 88.5438C134.181 88.8938 134.34 90.0338 134.282 91.2374C134.244 91.8895 134.118 93.629 134.365 93.9738L133.052 93.5539C131.884 93.1806 130.909 91.8594 131.219 90.0989Z" fill="#016450"/>
<path d="M128.474 96.3557L128.012 97.7897L133.683 100.31C134.897 100.849 135.462 102.24 135.023 103.601C134.9 103.984 134.702 104.348 134.648 104.435L136.048 105.057C136.112 104.898 136.246 104.527 136.314 104.314C136.675 103.196 136.381 101.954 135.604 101.22L135.636 101.122L136.989 101.724L137.436 100.338L128.474 96.3557Z" fill="#016450"/>
<path d="M132.209 112.193L133.126 110.311L135.16 111.487L135.82 110.133L133.787 108.956L134.435 107.625L133.33 106.985L132.681 108.317L127.376 105.247C125.895 104.39 124.584 105.221 124.024 106.368C123.778 106.873 123.71 107.246 123.687 107.468L124.992 107.87C125.026 107.743 125.072 107.534 125.217 107.235C125.508 106.638 125.965 106.167 127.07 106.806L132.021 109.671L131.104 111.553L132.209 112.193Z" fill="#016450"/>
<path d="M126.778 114.02C128.161 115.027 128.331 116.501 127.494 117.73C126.696 118.902 125.491 119.083 124.232 118.166L119.277 114.558L118.429 115.804L123.466 119.471C125.505 120.955 127.215 120.543 128.343 118.886C129.213 117.609 129.188 116.501 128.626 115.524L128.698 115.418L132.58 118.244L133.428 116.999L122.857 109.303L122.009 110.548L126.778 114.02Z" fill="#016450"/>
<path d="M40.7021 132.134L39.653 131.052L35.2538 135.32C34.2227 136.32 32.765 136.275 31.947 135.432C31.1513 134.612 31.1318 133.519 31.9337 132.741L36.7546 128.064L35.6877 126.965L31.1051 131.41C30.1978 132.29 28.9775 132.371 28.0173 131.381C27.2705 130.611 27.0382 129.556 28.0784 128.547L32.7893 123.977L31.7402 122.895L27.0293 127.465C25.375 129.07 25.4721 130.701 26.6902 131.957C27.6681 132.965 28.8467 133.254 29.9265 132.909L29.9976 132.982C29.5839 134.06 29.7397 135.101 30.6377 136.026C31.5268 136.943 32.6246 137.194 33.6607 136.758L33.7496 136.85L32.6498 137.917L33.6633 138.962L40.7021 132.134Z" fill="#016450"/>
<path d="M28.347 117.486C27.2897 116.14 25.9916 115.975 25.2844 116.107L25.237 116.047L26.3143 115.271L25.3833 114.086L20.1419 117.864C17.6145 119.686 18.7919 121.762 19.5651 122.746C20.4803 123.911 21.9361 124.937 23.8597 124.494L23.3904 123.071C22.6052 123.228 21.4985 123.059 20.6108 121.93C19.7548 120.84 19.9283 119.874 20.9486 119.138L20.9901 119.108C21.5805 118.683 21.9863 119.302 23.2773 120.574C24.5933 121.866 26.1464 123.192 27.9695 121.878C29.5233 120.758 29.4989 118.951 28.347 117.486ZM27.107 118.096C27.8486 119.04 27.95 120.036 27.1007 120.649C26.1684 121.321 25.2314 120.706 24.3812 119.872C23.9246 119.415 22.7223 118.174 22.3159 118.153L23.4347 117.346C24.4291 116.63 26.0024 116.691 27.107 118.096Z" fill="#016450"/>
<path d="M23.0013 109.369C21.9959 107.769 20.6145 107.771 19.9624 107.738L19.8673 107.587L21.2033 106.89L20.4288 105.657L8.83488 111.703L9.63651 112.979L13.9163 110.747L13.9842 110.855C13.708 111.372 12.9788 112.413 13.9979 114.035C15.3158 116.132 17.9697 116.672 20.7097 115.243C23.4724 113.803 24.3057 111.445 23.0013 109.369ZM21.6925 109.821C22.6979 111.422 21.7423 113.011 19.8855 113.979C18.0513 114.935 16.1219 114.879 15.1029 113.257C14.1246 111.701 14.9217 110.194 16.8691 109.179C18.8392 108.151 20.7278 108.286 21.6925 109.821Z" fill="#016450"/>
<path d="M17.8791 99.5855C17.0053 97.7955 15.4277 96.8195 13.8296 96.9003L14.083 98.3447C15.2141 98.3483 16.0849 98.9755 16.6031 100.037C17.3789 101.626 16.8364 103.103 14.887 103.867L11.7641 97.4694L11.1622 97.6823C7.71924 98.9 7.49177 101.268 8.38802 103.104C9.55315 105.491 12.3004 106.376 15.1414 105.371C17.9825 104.366 19.1227 102.133 17.8791 99.5855ZM13.6591 104.301C12.1757 104.718 10.4203 104.202 9.66407 102.653C8.94706 101.184 9.6434 99.8342 11.2084 99.2807L13.6591 104.301Z" fill="#016450"/>
<path d="M11.9598 84.0855C11.3503 81.5005 8.92779 79.9064 5.89673 80.1262C2.8402 80.3479 1.23827 82.2338 1.84783 84.8188C2.45739 87.4039 4.87989 88.9979 7.93642 88.7762C10.9675 88.5564 12.5694 86.6706 11.9598 84.0855ZM10.6099 84.1834C11.0729 86.147 9.55188 87.1675 7.59061 87.3097C5.62934 87.4519 3.66083 86.6846 3.1978 84.7209C2.73476 82.7573 4.28127 81.735 6.24254 81.5928C8.20381 81.4505 10.1468 82.2198 10.6099 84.1834Z" fill="#016450"/>
<path d="M5.078 76.8049C3.36941 76.7133 2.27948 75.6084 2.11491 74.1749C1.95544 72.7858 2.77027 71.9911 4.30672 72.0735L10.427 72.4018L10.2552 70.9049L4.03286 70.5712C1.53373 70.4371 0.487364 71.6985 0.713828 73.6711C0.882766 75.1426 1.65066 76.0916 2.69764 76.6016L2.7122 76.7284L1.18212 76.6464L1.34815 78.0925L11.1406 78.6178L10.9688 77.1209L5.078 76.8049Z" fill="#016450"/>
<path d="M11.0454 57.8034C11.3137 55.8296 10.5555 54.1018 9.19831 53.222L8.61077 54.5473C9.53787 55.2195 9.90769 56.2452 9.74861 57.4156C9.51042 59.168 8.25126 60.0489 6.22936 59.5167L7.18816 52.4628L6.57648 52.2799C3.07765 51.2336 1.58638 53.026 1.31121 55.0504C0.953491 57.6822 2.72248 60.0282 5.60962 60.8916C8.49677 61.755 10.6636 60.6123 11.0454 57.8034ZM4.98153 59.1435C3.53337 58.6051 2.3758 57.1463 2.60798 55.4382C2.82812 53.8187 4.14357 53.1324 5.73395 53.608L4.98153 59.1435Z" fill="#016450"/>
<path d="M12.6644 50.1881C13.1169 48.538 12.5075 47.3157 12.0012 46.77L12.0214 46.6961L13.2432 47.2165L13.6417 45.7634L7.69734 43.2315C4.8309 42.0105 3.87383 44.1609 3.54287 45.3677C3.15113 46.7961 3.17527 48.6218 4.61732 50.0612L5.46546 48.8821C4.89539 48.2817 4.39822 47.2242 4.77814 45.8388C5.14456 44.5027 6.00072 44.1316 7.15787 44.6245L7.20486 44.6445C7.87448 44.9297 7.61987 45.6189 7.35854 47.433C7.09464 49.2804 6.93955 51.3529 9.00715 52.2335C10.7693 52.9841 12.1713 51.986 12.6644 50.1881ZM11.4799 49.436C11.1625 50.5936 10.4394 51.2208 9.47613 50.8105C8.41884 50.3601 8.36682 49.2103 8.53654 48.0173C8.63491 47.3716 8.92297 45.6514 8.70857 45.285L9.97732 45.8254C11.1051 46.3058 11.9527 47.712 11.4799 49.436Z" fill="#016450"/>
<path d="M14.7955 43.4622L15.3894 42.0774L9.9778 39.0401C8.81976 38.3901 8.3862 36.9528 8.94988 35.6385C9.10842 35.2688 9.3388 34.9249 9.40133 34.8435L8.06513 34.0936C7.98605 34.2457 7.8189 34.6033 7.73082 34.8086C7.2678 35.8883 7.44418 37.1521 8.14952 37.9557L8.10926 38.0495L6.8176 37.3246L6.24385 38.6624L14.7955 43.4622Z" fill="#016450"/>
<path d="M12.552 27.3456L11.4633 29.1345L9.54805 27.7736L8.76467 29.0607L10.6799 30.4215L9.9098 31.6868L10.9507 32.4264L11.7208 31.1612L16.717 34.7113C18.1118 35.7024 19.495 34.9977 20.1589 33.907C20.451 33.427 20.5536 33.0625 20.5974 32.8436L19.3347 32.3214C19.2891 32.4452 19.2245 32.6493 19.0519 32.9329C18.7067 33.5001 18.2082 33.9272 17.1673 33.1875L12.5042 29.8741L13.5929 28.0853L12.552 27.3456Z" fill="#016450"/>
<path d="M18.1293 26.0319C16.8458 24.9004 16.8138 23.4175 17.7621 22.2714C18.6657 21.1794 19.8816 21.1114 21.0502 22.1415L25.6479 26.1946L26.6084 25.0337L21.9341 20.9131C20.0424 19.2454 18.3016 19.4974 17.0236 21.0419C16.0386 22.2323 15.9607 23.3375 16.4291 24.3629L16.3477 24.4613L12.7462 21.2864L11.7856 22.4473L21.594 31.0938L22.5546 29.9329L18.1293 26.0319Z" fill="#016450"/>
</svg>
