<svg width="41" height="51" viewBox="0 0 41 51" fill="none" xmlns="http://www.w3.org/2000/svg">
<path d="M5.11524 28.2631C5.03346 27.9813 4.91429 27.7118 4.76092 27.4616C4.60893 27.1734 4.54006 26.8486 4.56201 26.5235C4.56201 26.2937 4.66147 26.1321 4.43769 25.9893C4.30084 25.9219 4.15701 25.8699 4.00878 25.8339L1.69641 25.1133C1.98756 26.159 2.56697 27.1019 3.36853 27.8344C3.86515 28.6418 4.43085 29.4047 5.0593 30.1144C4.95966 29.8955 4.90471 29.659 4.89768 29.4186C4.88525 29.0459 5.17119 28.6545 5.11524 28.2631Z" fill="#016450"/>
<path d="M1.59698 24.343C2.50452 24.6225 3.41828 24.8959 4.31961 25.1879C4.63908 25.2584 4.92702 25.4306 5.14013 25.6787C5.37634 26.0142 5.23959 26.2999 5.25824 26.7038C5.25824 27.325 5.81769 27.7475 5.8239 28.3625C5.8239 28.7353 5.58769 29.0583 5.60012 29.4249C5.65101 29.7625 5.78802 30.0813 5.99795 30.3506C6.79785 31.4438 7.92925 32.2499 9.22409 32.6492C10.7788 33.1391 12.3989 33.3905 14.0291 33.3947C14.355 33.421 14.6823 33.3661 14.9817 33.2349C15.2811 33.1037 15.5433 32.9003 15.7447 32.643C16.0413 32.2427 16.2682 31.7954 16.4161 31.3197C15.6035 30.85 14.91 30.1995 14.3896 29.4187C13.6686 28.4247 13.0035 27.3996 12.3135 26.3869C12.028 25.8556 11.6703 25.3664 11.2505 24.9332C10.781 24.6417 10.2597 24.4435 9.71516 24.3492C9.1839 24.2184 8.6437 24.1271 8.09898 24.0758C7.64521 24.0323 7.18522 24.0758 6.73766 23.964C6.39222 23.9146 6.07624 23.7422 5.84783 23.4786C5.61941 23.2149 5.49393 22.8777 5.49445 22.5289C5.49445 21.8455 5.88606 21.218 5.90471 20.5409C5.90471 20.1308 5.64364 20.0314 5.41986 19.727C5.1277 19.3294 5.34527 18.9194 5.35148 18.4845C5.3 17.9311 5.21488 17.3813 5.09662 16.8382C5.04068 16.3784 5.02203 15.9063 5.0096 15.4403C5.0096 13.5765 5.22094 11.5699 4.13313 9.94216C3.87827 9.55698 4.5061 9.19665 4.75474 9.58183C5.94201 11.3524 5.68715 13.5393 5.73066 15.5584C5.73475 16.0701 5.7763 16.5809 5.85498 17.0867C5.96224 17.5463 6.03291 18.0137 6.06633 18.4845C6.06633 18.7516 5.8985 19.1617 6.06633 19.3729C6.23416 19.5841 6.3274 19.6028 6.42686 19.7581C6.57555 19.9957 6.6472 20.2734 6.63199 20.5533C6.63199 21.2118 6.26524 21.7958 6.22794 22.4668C6.172 23.4173 7.32198 23.3055 7.99953 23.3614C9.06385 23.4371 10.1111 23.6695 11.1076 24.051C12.127 24.4548 12.6181 25.4923 13.2024 26.3496C13.7867 27.207 14.4083 28.1575 15.0672 29.0335C15.5695 29.8181 16.2795 30.4482 17.1185 30.8538C17.1869 30.8934 17.2404 30.9544 17.2707 31.0273C17.301 31.1003 17.3065 31.1812 17.2863 31.2576C16.8885 32.5995 16.0928 34.0036 14.5202 34.1278C13.6445 34.1556 12.7682 34.0994 11.9032 33.9601C11.0937 33.8759 10.293 33.7221 9.51003 33.5003C9.24274 33.4196 8.97544 33.3264 8.71437 33.227C9.88667 33.9676 11.1375 34.576 12.444 35.0411C17.075 36.7123 22.887 35.9108 27.058 33.345C30.6235 31.1165 33.3947 27.8207 34.9772 23.9267H34.8964L34.4054 23.8646C34.2539 23.8547 34.1076 23.8053 33.9811 23.7214C33.8546 23.6374 33.7523 23.5219 33.6843 23.3862C33.4391 23.0657 33.2661 22.6961 33.1771 22.3026C33.088 21.9091 33.0851 21.501 33.1684 21.1062C33.5786 19.8202 34.9648 19.3046 36.0775 18.7516C36.1463 18.7159 36.2246 18.7028 36.3013 18.7144C36.5076 16.7399 36.3667 14.7445 35.8848 12.8186C35.8211 11.402 35.2875 10.0468 34.3681 8.96679C34.3681 8.91709 34.3246 8.8736 34.2997 8.83011C34.0697 8.42629 33.8211 8.05353 33.56 7.68078C33.2217 7.20324 32.8521 6.74872 32.4535 6.32022C29.7432 3.54213 26.1118 1.84783 22.2405 1.55515C22.2405 1.59864 22.2778 1.61728 22.284 1.66077C22.2813 1.67931 22.2813 1.69814 22.284 1.71668C21.7904 1.57853 21.2878 1.47474 20.7798 1.40605C19.9345 1.28778 19.0736 1.35348 18.256 1.59864C15.8944 1.82089 13.5969 2.49142 11.4867 3.57425C9.45609 4.35045 7.60991 5.54176 6.06633 7.07194C3.40728 9.75267 1.66637 13.2065 1.09348 16.9376C0.902005 17.5789 0.801566 18.2439 0.795105 18.9132C0.799133 19.2895 0.828205 19.6652 0.88213 20.0376C0.844906 20.4302 0.844906 20.8254 0.88213 21.218C0.948975 22.0515 1.13313 22.8713 1.42915 23.6534C1.47266 23.8832 1.50995 24.1193 1.54725 24.343C1.5638 24.3417 1.58043 24.3417 1.59698 24.343ZM26.6726 16.2666C26.9352 16.8273 27.1434 17.4119 27.2942 18.0123C27.4976 18.6826 27.6575 19.3654 27.7728 20.0563C27.9812 21.2106 27.9622 22.3945 27.7169 23.5415C27.4807 24.5294 26.971 25.9085 25.8831 26.244C24.7953 26.5795 23.751 25.7657 23.1108 24.958C22.7765 24.4915 22.3999 24.0569 21.9857 23.6596C21.5371 23.3214 21.046 23.0435 20.5249 22.8333C19.5987 22.3984 18.2933 21.8393 18.1006 20.7148C18.0597 20.1356 18.138 19.5541 18.3306 19.0063C18.4481 18.539 18.6235 18.0883 18.8528 17.6644C19.078 17.235 19.4152 16.8744 19.8287 16.6207C20.3322 16.3411 20.9289 16.3163 21.4511 16.074C22.3959 15.6329 23.3159 14.8688 24.3975 14.9992C24.7307 14.9718 25.066 15.0076 25.3859 15.1048C25.6705 15.206 25.9323 15.3623 26.1564 15.5649C26.3804 15.7675 26.5621 16.0123 26.6912 16.2852L26.6726 16.2666ZM9.55976 4.91617C9.51624 4.46265 10.2435 4.46265 10.287 4.91617C10.4176 6.27052 9.78975 7.56274 9.90786 8.90466C10.0739 9.61195 10.3048 10.3024 10.5978 10.9672C10.7585 11.6315 10.8543 12.3098 10.8838 12.9926C10.905 13.6047 10.9799 14.2138 11.1076 14.8128C11.1697 15.0613 11.2692 15.3782 11.5862 15.3596C11.829 15.3256 12.0656 15.2565 12.2886 15.1545C13.255 14.7719 14.038 14.0338 14.4767 13.092C14.9056 12.1538 14.9367 10.8927 16.0493 10.4454C16.2961 10.3685 16.5561 10.3437 16.8129 10.3726C17.0697 10.4015 17.3177 10.4834 17.5412 10.6131C17.7803 10.7232 18.0432 10.7718 18.306 10.7545C18.5687 10.7371 18.8229 10.6543 19.0455 10.5137C19.485 10.2346 19.9465 9.99147 20.4254 9.78685C20.9929 9.62334 21.5898 9.58936 22.1722 9.68745C23.5646 9.83655 24.9507 9.99186 26.3431 10.1348C26.9656 10.2375 27.6034 10.1972 28.2079 10.0167C28.6392 9.828 29.0378 9.57218 29.389 9.25878C30.062 8.56887 30.8733 8.02899 31.7698 7.67456C31.8572 7.66061 31.9467 7.67929 32.0212 7.72703C32.0957 7.77477 32.1501 7.84825 32.1739 7.93346C32.1977 8.01867 32.1893 8.10966 32.1503 8.18909C32.1113 8.26852 32.0444 8.33083 31.9625 8.36416C30.8498 8.68722 30.0976 9.68745 29.1901 10.3087C27.9469 11.135 26.511 10.8741 25.0937 10.725L22.9305 10.4889C22.2503 10.3605 21.5549 10.3333 20.8668 10.4081C19.8287 10.6318 19.0703 11.6506 17.9328 11.4767C17.4169 11.4083 16.8388 10.8989 16.3166 11.0915C15.7945 11.2841 15.5396 12.0793 15.3842 12.6136C15.0999 13.6442 14.4839 14.5525 13.6313 15.198C12.9724 15.695 11.524 16.5213 10.7843 15.8193C10.4662 15.3969 10.2958 14.8817 10.2995 14.3531C10.2124 13.7318 10.1876 13.0547 10.1254 12.4086C10.0555 11.7188 9.87939 11.0441 9.60327 10.4081C9.33411 9.85517 9.18377 9.25203 9.16193 8.63752C9.16193 7.35772 9.67786 6.17112 9.55976 4.91617Z" fill="#016450"/>
<path d="M33.8272 21.1246C33.5413 21.7459 33.8894 22.423 34.2251 22.9884L34.2872 23.094H34.4053C34.4986 23.094 34.598 23.094 34.6913 23.1313C34.8461 23.1423 34.9999 23.1652 35.1513 23.1996C35.6016 21.977 35.9245 20.7112 36.1148 19.4224C35.7232 19.615 35.3315 19.8075 34.9524 20.0436C34.4667 20.2678 34.0705 20.6485 33.8272 21.1246Z" fill="#016450"/>
<path d="M24.5965 15.7256C24.5472 15.7353 24.4966 15.7353 24.4473 15.7256H24.3789C24.1241 15.7256 23.863 15.7878 23.6143 15.825H23.5273C22.8622 16.0425 22.2841 16.5208 21.6252 16.788C21.1113 16.9184 20.6083 17.0888 20.1209 17.2974C19.7525 17.5575 19.4691 17.9206 19.3066 18.3411C19.1415 18.7425 19.0146 19.1585 18.9274 19.5837C18.8282 19.818 18.7899 20.0735 18.816 20.3266C18.8421 20.5796 18.9317 20.822 19.0766 21.0312C19.6982 21.7581 20.7487 22.0501 21.563 22.4849C22.003 22.7076 22.4073 22.9945 22.7627 23.3361C23.0838 23.6891 23.3867 24.0582 23.6703 24.4419C24.18 25.0632 25.1932 26.051 26.051 25.3614C26.4316 24.9887 26.7098 24.5244 26.8591 24.0132C27.027 23.5583 27.1397 23.0848 27.1948 22.603C27.2873 21.5841 27.2202 20.557 26.9959 19.5588C26.8211 18.5734 26.5246 17.6134 26.1132 16.701C26.0219 16.4757 25.8821 16.2732 25.7038 16.1079C25.5255 15.9426 25.313 15.8184 25.0813 15.7443C24.9209 15.7199 24.7583 15.7137 24.5965 15.7256Z" fill="#016450"/>
<path d="M40.8204 14.6761C40.6982 13.5822 40.5177 12.4955 40.2796 11.4207C40.2237 11.1225 40.1926 10.7498 40.1118 10.4267C40.031 10.1037 39.8756 9.62529 39.7326 9.2339C39.0945 7.44531 38.2607 5.73266 37.2462 4.12714C37.1529 3.98425 37.0535 3.83515 36.9478 3.69847C37.6813 2.87012 38.4086 2.02314 39.1296 1.15752C39.571 0.63566 38.8561 -0.0850008 38.3526 0.393369C36.3594 2.35241 34.3702 4.31352 32.3852 6.2767C32.7809 6.70776 33.1503 7.1621 33.4917 7.63726C34.3433 6.68673 35.1887 5.72378 36.0278 4.76704C36.3946 5.43179 36.7613 6.10275 37.1094 6.77992C37.1273 6.82583 37.1502 6.86959 37.1778 6.91039C37.2515 7.02145 37.3549 7.10967 37.4762 7.1651C37.644 7.50679 37.8118 7.84849 37.9672 8.1964C38.327 8.98218 38.6262 9.79424 38.8624 10.6255C38.9059 10.7746 38.9432 10.9299 38.9742 11.0853L39.0115 11.2841C39.0115 11.2841 39.0115 11.3959 39.0115 11.4269C39.0613 11.9612 39.2415 12.4955 39.3348 13.0298C40.033 17.2074 39.4793 21.498 37.7435 25.3618C36.0286 29.3048 33.2796 32.7113 29.7869 35.2212C28.3836 36.2355 26.8204 37.0082 25.1622 37.5074C22.1984 38.368 19.0896 38.6123 16.0277 38.2255C12.9658 37.8387 10.0157 36.829 7.35934 35.2585C7.0734 35.0721 6.78747 34.8795 6.51396 34.6807C7.13557 34.1464 7.71366 33.6059 8.3104 33.0654C7.78742 32.837 7.29126 32.5516 6.83098 32.2143C5.33291 33.7737 3.82862 35.3206 2.33677 36.8862C2.2811 36.9304 2.23613 36.9866 2.20522 37.0506C2.17432 37.1146 2.15826 37.1848 2.15826 37.2558C2.15826 37.3269 2.17432 37.397 2.20522 37.4611C2.23613 37.5251 2.2811 37.5813 2.33677 37.6255C2.38519 37.6809 2.44491 37.7253 2.51192 37.7557C2.57893 37.7861 2.65168 37.8018 2.72527 37.8018C2.79887 37.8018 2.87161 37.7861 2.93862 37.7557C3.00562 37.7253 3.06535 37.6809 3.11377 37.6255L5.55669 35.4946C9.16126 38.0626 13.4517 39.4948 17.8769 39.6073C18.5545 39.6073 19.2445 39.6073 19.9407 39.6073C19.9619 42.7076 20.2488 45.8004 20.7985 48.8517C18.2789 48.9718 15.7655 49.1478 13.2584 49.3797H13.2211H13.1589H13.1154C13.0867 49.3926 13.0612 49.4117 13.0408 49.4356C12.9969 49.489 12.9729 49.556 12.9729 49.6251C12.9729 49.6942 12.9969 49.7612 13.0408 49.8146C13.0611 49.8465 13.0884 49.8732 13.1208 49.8926C13.1532 49.912 13.1897 49.9236 13.2273 49.9264C18.8114 51.0034 24.5704 50.7566 30.0418 49.2058C30.1242 49.1951 30.199 49.1521 30.2497 49.0862C30.3004 49.0204 30.3229 48.9371 30.3122 48.8548C30.3014 48.7724 30.2584 48.6976 30.1926 48.6469C30.1267 48.5963 30.0434 48.5738 29.961 48.5845C27.3295 48.5597 24.7022 48.6011 22.079 48.7088C22.1072 48.6375 22.1219 48.5617 22.1225 48.4851C22.1598 45.4471 22.1225 42.403 21.9174 39.3712C24.415 39.121 26.834 38.3574 29.0223 37.1285C32.8561 34.8177 35.9889 31.5084 38.0853 27.5549C40.2084 23.6109 41.1574 19.142 40.8204 14.6761Z" fill="#016450"/>
</svg>
