<svg width="130" height="126" viewBox="0 0 130 126" fill="none" xmlns="http://www.w3.org/2000/svg">
<path d="M22.3828 64.0508L26.1611 62.6483L22.3852 61.2392C10.7131 56.8836 2.40935 45.6298 2.4207 32.4452C2.4353 15.4929 16.1897 1.76215 33.1421 1.77675L97.8105 1.83245C114.763 1.84705 128.494 15.6015 128.479 32.5538C128.468 45.7383 120.145 56.9778 108.465 61.3133L104.687 62.7159L108.463 64.1249C120.135 68.4805 128.438 79.7343 128.427 92.9189C128.412 109.871 114.658 123.602 97.7057 123.587L33.0373 123.532C16.085 123.517 2.35421 109.763 2.36881 92.8103C2.38017 79.6258 10.7032 68.3863 22.3828 64.0508Z" fill="#CEF564" stroke="#016450" stroke-width="3"/>
</svg>
